<svg id="Layer_1" data-name="Layer 1" xmlns="http://www.w3.org/2000/svg" viewBox="0 0 79.73 78.42"><defs><style>.cls-1{fill:#fff;}</style></defs><title>threeheads_white_icon</title><path class="cls-1" d="M144.71,114.43h.3l.07,0,.05,0,.06,0,.06,0,.06,0,.06,0,0,0,.08-.06,0,0c1.89-1.55,4.35-1,6.95-.34a18.9,18.9,0,0,0,4.23.68,15.81,15.81,0,0,1,.31,6,40.34,40.34,0,0,0-13.49-2.25h-.31l-.09,0h0l-.1,0h0l-.11.05h0l-.09.05-.05,0,0,0-.07.06,0,0-.06.07,0,0,0,.06,0,0,0,0,0,.06,0,0,0,0a11.66,11.66,0,0,1-.14-1.6C142.2,116.06,142.85,114.43,144.71,114.43ZM164,143.71v1.39s-.13.18-.39.18H136.1c-.26,0-.39-.15-.39-.18v-1.39a4,4,0,0,1,2.76-3.88l3.11-.81a11.18,11.18,0,0,0,16.59,0l3.09.8A4,4,0,0,1,164,143.71Zm-10.26-8a2.86,2.86,0,0,0,1.66,2.48,8.78,8.78,0,0,1-11.11,0,2.86,2.86,0,0,0,1.65-2.48v-.55a7.67,7.67,0,0,0,3.91,1.1,7.92,7.92,0,0,0,3.88-1Zm2.56-11.95h0v2.13a8.55,8.55,0,0,1-2.18,5.78h0a5.83,5.83,0,0,1-4.25,2c-3.41,0-6.4-3.75-6.4-8v-.44a15.83,15.83,0,0,1,.94-4.33,37.81,37.81,0,0,1,11.9,2.15v.71Zm-15.41,1.9a11.61,11.61,0,0,0,2.5,7.25v2.78a1.71,1.71,0,0,1-.8.44l-4.79,1.24h0a6.64,6.64,0,0,0-4.65,6.36v1.39a2.87,2.87,0,0,0,3,2.76h27.51a2.87,2.87,0,0,0,3-2.76v-1.39a6.64,6.64,0,0,0-4.65-6.36h0l-4.79-1.24a1.71,1.71,0,0,1-.8-.44v-2.61h0a11.16,11.16,0,0,0,2.55-7.16v-1.94a18,18,0,0,0-.11-11.32h0l0-.07,0,0,0-.06,0,0,0,0,0-.06,0,0-.06-.06,0,0-.07-.06,0,0-.07,0,0,0-.07,0-.05,0-.06,0-.06,0-.06,0h-.52a12.64,12.64,0,0,1-4.35-.57c-2.83-.68-6-1.44-8.82.58-2.7.23-4.62,2.51-4.62,5.58a36.29,36.29,0,0,0,1.27,7.11v1.07Z" transform="translate(-109.99 -110.58)"/><path class="cls-1" d="M140.87,186.24s-.13.18-.39.18H113c-.26,0-.39-.15-.39-.18v-1.39a4,4,0,0,1,2.76-3.88l3.11-.81a11.18,11.18,0,0,0,16.59,0l3.09.8a4,4,0,0,1,2.76,3.88Zm-19.3-30.67h.3l.07,0,.06,0,.06,0,.06,0,.06,0,.06,0,0,0,.08-.06,0,0c1.89-1.55,4.35-1,6.95-.34a18.9,18.9,0,0,0,4.23.68,15.81,15.81,0,0,1,.31,6,40.34,40.34,0,0,0-13.49-2.25h-.3l-.09,0h0l-.22.09h0l-.09.06,0,0-.05,0-.07.06,0,0-.06.07,0,0,0,.06,0,0,0,0,0,.06,0,0,0,0a11.66,11.66,0,0,1-.14-1.6C119.06,157.2,119.71,155.57,121.57,155.57Zm1.26,21.26v-.55a7.67,7.67,0,0,0,3.91,1.1,7.91,7.91,0,0,0,3.88-1v.47a2.86,2.86,0,0,0,1.66,2.48,8.78,8.78,0,0,1-11.11,0A2.86,2.86,0,0,0,122.82,176.83Zm-2.49-10.49a15.83,15.83,0,0,1,.94-4.33,37.8,37.8,0,0,1,11.9,2.15v.71h0V167A8.55,8.55,0,0,1,131,172.8h0a5.83,5.83,0,0,1-4.25,2c-3.41,0-6.4-3.75-6.4-8Zm18.47,12.16h0L134,177.24a1.71,1.71,0,0,1-.8-.44V174.2h0a11.16,11.16,0,0,0,2.55-7.16v-1.94a18,18,0,0,0-.11-11.32h0l0-.08,0,0,0-.07,0,0,0-.06,0,0,0,0,0,0,0,0,0,0-.06,0,0,0-.07,0,0,0-.09,0h0l-.09,0h0l-.09,0h-.44a12.65,12.65,0,0,1-4.35-.57c-2.83-.68-6-1.44-8.82.58-2.7.23-4.62,2.51-4.62,5.58a36.28,36.28,0,0,0,1.27,7.11v1.07a11.61,11.61,0,0,0,2.5,7.25v2.78a1.71,1.71,0,0,1-.8.44l-4.79,1.24h0a6.64,6.64,0,0,0-4.65,6.36v1.39a2.87,2.87,0,0,0,3,2.76h27.51a2.87,2.87,0,0,0,3-2.76v-1.39A6.64,6.64,0,0,0,138.8,178.49Z" transform="translate(-109.99 -110.58)"/><path class="cls-1" d="M187.15,186.24s-.13.18-.39.18H159.25c-.26,0-.39-.15-.39-.18v-1.39a4,4,0,0,1,2.76-3.88l3.11-.81a11.18,11.18,0,0,0,16.59,0l3.09.8a4,4,0,0,1,2.76,3.88v1.39Zm-19.3-30.67h.3l.07,0,.06,0,.06,0,.06,0,.06,0,.06,0,0,0,.08-.06,0,0c1.89-1.55,4.35-1,6.95-.34a18.9,18.9,0,0,0,4.23.68,15.81,15.81,0,0,1,.31,6,40.34,40.34,0,0,0-13.49-2.25h-.3l-.09,0h0l-.22.1h0l-.1.06,0,0-.05,0-.07.06,0,0-.06.07,0,0,0,.06,0,0,0,0,0,.06,0,0,0,0a11.67,11.67,0,0,1-.14-1.6C165.34,157.2,166,155.57,167.85,155.57Zm1.26,21.26v-.55a7.67,7.67,0,0,0,3.91,1.1,7.91,7.91,0,0,0,3.88-1v.47a2.86,2.86,0,0,0,1.66,2.48,8.78,8.78,0,0,1-11.11,0A2.86,2.86,0,0,0,169.11,176.83Zm-2.49-10.49a15.83,15.83,0,0,1,.94-4.33,37.8,37.8,0,0,1,11.9,2.15v.71h0V167a8.55,8.55,0,0,1-2.18,5.78h0a5.83,5.83,0,0,1-4.25,2c-3.41,0-6.4-3.75-6.4-8v-.44Zm18.47,12.16h0l-4.79-1.24a1.71,1.71,0,0,1-.8-.44V174.2h0A11.16,11.16,0,0,0,182,167v-1.94a18,18,0,0,0-.11-11.32h0l0-.08,0,0,0-.07,0,0,0-.05,0,0,0,0,0-.05,0,0-.06,0,0,0-.05,0-.06,0,0,0-.08,0,0,0-.08,0h0l-.08,0h-.44a12.65,12.65,0,0,1-4.35-.57c-2.83-.68-6-1.44-8.82.58-2.7.23-4.62,2.51-4.62,5.58A36.28,36.28,0,0,0,164,165.7v1.07a11.61,11.61,0,0,0,2.5,7.25v2.78a1.71,1.71,0,0,1-.8.44l-4.79,1.24h0a6.64,6.64,0,0,0-4.65,6.36v1.39a2.87,2.87,0,0,0,3,2.76h27.51a2.87,2.87,0,0,0,3-2.76v-1.39A6.64,6.64,0,0,0,185.08,178.49Z" transform="translate(-109.99 -110.58)"/><path class="cls-1" d="M162,128.18a23,23,0,0,1,11,19.68,1.29,1.29,0,1,0,2.57,0A25.7,25.7,0,0,0,163.41,126a1.29,1.29,0,0,0-1.36,2.19Z" transform="translate(-109.99 -110.58)"/><path class="cls-1" d="M125.44,149.15a1.29,1.29,0,0,0,1.29-1.29,23,23,0,0,1,11-19.68,1.29,1.29,0,1,0-1.36-2.19,25.7,25.7,0,0,0-12.18,21.87A1.29,1.29,0,0,0,125.44,149.15Z" transform="translate(-109.99 -110.58)"/><path class="cls-1" d="M161.32,169.49a1.29,1.29,0,0,0-1.71-.62,23.2,23.2,0,0,1-19.49,0A1.29,1.29,0,0,0,139,171.2a25.78,25.78,0,0,0,21.66,0A1.29,1.29,0,0,0,161.32,169.49Z" transform="translate(-109.99 -110.58)"/></svg>